<svg version="1.1" preserveAspectRatio="none" xmlns="http://www.w3.org/2000/svg" width="500" height="500" viewBox="0 0 500 500"><rect width="100%" height="100%" fill="#161616" fill-opacity="1"/><svg viewBox="-27.8398 180.7932 392.91 80" width="333" height="67.80178666870275" x="83.5px" y="216.0991px" xmlns="http://www.w3.org/2000/svg" xmlns:xlink="http://www.w3.org/1999/xlink" preserveAspectRatio="none"><defs></defs><style>.companyName {fill:#F3F0ED;fill-opacity:1;}.icon3-str {stroke:#ED4545;stroke-opacity:1;}</style><g opacity="1" transform="rotate(0 -27.8398 180.7932)">
<svg width="392.91" height="80" x="-27.8398" y="180.7932" version="1.1" preserveAspectRatio="none" viewBox="3.32 -28 137.52 28">
  <g transform="matrix(1 0 0 1 0 0)" class="companyName"><path id="id-D6z1nYkh5" d="M15.44-28Q19.16-28 21.90-26.76Q24.64-25.52 26.12-23.24Q27.60-20.96 27.60-17.84L27.60-17.84Q27.60-14.76 26.12-12.46Q24.64-10.16 21.90-8.94Q19.16-7.72 15.44-7.72L15.44-7.72L9.80-7.72L9.80 0L3.32 0L3.32-28L15.44-28ZM15.08-13Q18-13 19.52-14.26Q21.04-15.52 21.04-17.84L21.04-17.84Q21.04-20.20 19.52-21.46Q18-22.72 15.08-22.72L15.08-22.72L9.80-22.72L9.80-13L15.08-13Z M51.72 0L49.24-6L36.24-6L33.76 0L27.12 0L39.60-28L46-28L58.52 0L51.72 0ZM38.32-10.92L47.20-10.92L42.76-21.64L38.32-10.92Z M86.24 0L79.28 0L73.88-7.80L73.56-7.80L67.92-7.80L67.92 0L61.44 0L61.44-28L73.56-28Q77.28-28 80.02-26.76Q82.76-25.52 84.24-23.24Q85.72-20.96 85.72-17.84L85.72-17.84Q85.72-14.72 84.22-12.46Q82.72-10.20 79.96-9L79.96-9L86.24 0ZM79.16-17.84Q79.16-20.20 77.64-21.46Q76.12-22.72 73.20-22.72L73.20-22.72L67.92-22.72L67.92-12.96L73.20-12.96Q76.12-12.96 77.64-14.24Q79.16-15.52 79.16-17.84L79.16-17.84Z M96.24 0L96.24-22.72L87.28-22.72L87.28-28L111.68-28L111.68-22.72L102.72-22.72L102.72 0L96.24 0Z M134.36-28L140.84-28L140.84 0L134.36 0L134.36-11.48L121.64-11.48L121.64 0L115.16 0L115.16-28L121.64-28L121.64-16.96L134.36-16.96L134.36-28Z"/></g>
</svg>
</g></svg></svg>